<?xml version="1.0" encoding="UTF-8"?>
<svg width="32" height="32" viewBox="0 0 32 32" xmlns="http://www.w3.org/2000/svg">
    <defs>
        <linearGradient id="temp" x1="0%" y1="100%" x2="0%" y2="0%">
            <stop offset="0%" style="stop-color:#ff4444;stop-opacity:1" />
            <stop offset="100%" style="stop-color:#ff8888;stop-opacity:1" />
        </linearGradient>
    </defs>
    <g transform="translate(11,2)">
        <!-- Thermometer outline -->
        <path d="M6,20 L6,4 C6,1.8 4.2,0 2,0 C-0.2,0 -2,1.8 -2,4 L-2,20 C-3.3,21.3 -4,23.1 -4,25 C-4,28.9 -0.9,32 3,32 C6.9,32 10,28.9 10,25 C10,23.1 9.3,21.3 8,20" 
              fill="white" stroke="#666" stroke-width="1"/>
        <!-- Mercury bulb -->
        <circle cx="3" cy="25" r="4" fill="url(#temp)"/>
        <!-- Mercury column -->
        <rect x="1" y="8" width="4" height="17" fill="url(#temp)" rx="2"/>
        <!-- Scale marks -->
        <line x1="6" y1="6" x2="8" y2="6" stroke="#666" stroke-width="1"/>
        <line x1="6" y1="10" x2="8" y2="10" stroke="#666" stroke-width="1"/>
        <line x1="6" y1="14" x2="8" y2="14" stroke="#666" stroke-width="1"/>
        <line x1="6" y1="18" x2="8" y2="18" stroke="#666" stroke-width="1"/>
    </g>
</svg>
